<?xml version="1.0" standalone="no"?><!DOCTYPE svg PUBLIC "-//W3C//DTD SVG 1.1//EN" "http://www.w3.org/Graphics/SVG/1.1/DTD/svg11.dtd"><svg t="1608056797825" class="icon" viewBox="0 0 1024 1024" version="1.1" xmlns="http://www.w3.org/2000/svg" p-id="19070" xmlns:xlink="http://www.w3.org/1999/xlink" width="32" height="32"><defs><style type="text/css"></style></defs><path d="M700.55 353.262l-143.684-35.914L74.194 528.364 0.118 676.532l251.506 72.234L772.378 517.18z" fill="#F6BB42" p-id="19071"></path><path d="M700.55 353.262l-484.92 215.546 35.994 179.958L772.378 517.18z" fill="#FFCE54" p-id="19072"></path><path d="M215.63 568.808l-141.436-40.444L0.148 676.532l251.476 72.234z" fill="#E8AA3D" p-id="19073"></path><path d="M952.056 425.482l-143.684-35.93L325.7 600.582l-74.076 148.184 251.502 72.172 520.756-231.57z" fill="#F6BB42" p-id="19074"></path><path d="M952.056 425.482L467.134 640.98l35.992 179.958 520.756-231.57z" fill="#FFCE54" p-id="19075"></path><path d="M467.134 640.98l-141.434-40.398-74.076 148.184 251.502 72.172z" fill="#E8AA3D" p-id="19076"></path><path d="M792.75 238.976l-143.656-35.912-441.242 193.924-74.048 148.168 251.506 72.204 479.298-214.484z" fill="#F6BB42" p-id="19077"></path><path d="M792.75 238.976L349.318 437.4l35.992 179.96 479.298-214.484z" fill="#FFCE54" p-id="19078"></path><path d="M349.318 437.4l-141.466-40.412-74.048 148.168 251.506 72.204z" fill="#E8AA3D" p-id="19079"></path></svg>