<?xml version="1.0" standalone="no"?><!DOCTYPE svg PUBLIC "-//W3C//DTD SVG 1.1//EN" "http://www.w3.org/Graphics/SVG/1.1/DTD/svg11.dtd"><svg t="1608123246782" class="icon" viewBox="0 0 1024 1024" version="1.1" xmlns="http://www.w3.org/2000/svg" p-id="5280" xmlns:xlink="http://www.w3.org/1999/xlink" width="32" height="32"><defs><style type="text/css"></style></defs><path d="M516.7 924c-5.5 0-10-4.5-10-10V110c0-5.5 4.5-10 10-10s10 4.5 10 10v804c0 5.5-4.5 10-10 10z" fill="#153BDF" p-id="5281"></path><path d="M516.4 287.1c-2.6 0-5.1-1-7.1-2.9L386.5 161.3c-3.9-3.9-3.9-10.2 0-14.1 3.9-3.9 10.2-3.9 14.1 0L523.5 270c3.9 3.9 3.9 10.2 0 14.1-2 2-4.5 3-7.1 3z" fill="#153BDF" p-id="5282"></path><path d="M516.4 287.1c-2.6 0-5.1-1-7.1-2.9-3.9-3.9-3.9-10.2 0-14.1l122.9-122.9c3.9-3.9 10.2-3.9 14.1 0 3.9 3.9 3.9 10.2 0 14.1L523.5 284.2c-2 1.9-4.5 2.9-7.1 2.9zM393.8 869.5c-2.6 0-5.1-1-7.1-2.9-3.9-3.9-3.9-10.2 0-14.1l122.9-122.9c3.9-3.9 10.2-3.9 14.1 0 3.9 3.9 3.9 10.2 0 14.1L400.9 866.5c-2 2-4.5 3-7.1 3z" fill="#153BDF" p-id="5283"></path><path d="M639.5 869.5c-2.6 0-5.1-1-7.1-2.9L509.6 743.7c-3.9-3.9-3.9-10.2 0-14.1 3.9-3.9 10.2-3.9 14.1 0l122.9 122.9c3.9 3.9 3.9 10.2 0 14.1-1.9 1.9-4.5 2.9-7.1 2.9z" fill="#153BDF" p-id="5284"></path><path d="M864.6 723.1c-1.7 0-3.4-0.4-5-1.3l-696.2-402c-4.8-2.8-6.4-8.9-3.7-13.7 2.8-4.8 8.9-6.4 13.7-3.7l696.2 402c4.8 2.8 6.4 8.9 3.7 13.7-1.9 3.2-5.2 5-8.7 5z" fill="#153BDF" p-id="5285"></path><path d="M145.1 449.9c-4.4 0-8.5-2.9-9.7-7.4-1.4-5.3 1.7-10.8 7.1-12.2l167.8-45c5.3-1.4 10.8 1.7 12.2 7.1 1.4 5.3-1.7 10.8-7.1 12.2l-167.8 45c-0.7 0.1-1.6 0.3-2.5 0.3z" fill="#153BDF" p-id="5286"></path><path d="M313 404.9c-4.4 0-8.5-2.9-9.7-7.4l-45-167.8c-1.4-5.3 1.7-10.8 7.1-12.2 5.3-1.4 10.8 1.7 12.2 7.1l45 167.8c1.4 5.3-1.7 10.8-7.1 12.2-0.8 0.2-1.7 0.3-2.5 0.3zM756 802.2c-4.4 0-8.5-2.9-9.7-7.4l-45-167.8c-1.4-5.3 1.7-10.8 7.1-12.2 5.3-1.4 10.8 1.7 12.2 7.1l45 167.8c1.4 5.3-1.7 10.8-7.1 12.2-0.8 0.2-1.6 0.3-2.5 0.3z" fill="#153BDF" p-id="5287"></path><path d="M711 634.4c-4.4 0-8.5-2.9-9.7-7.4-1.4-5.3 1.7-10.8 7.1-12.2l167.8-45c5.3-1.4 10.8 1.7 12.2 7.1s-1.7 10.8-7.1 12.2l-167.8 45c-0.7 0.2-1.6 0.3-2.5 0.3z" fill="#153BDF" p-id="5288"></path><path d="M168.4 723.3c-3.5 0-6.8-1.8-8.7-5-2.8-4.8-1.1-10.9 3.7-13.7l696.2-402c4.8-2.8 10.9-1.1 13.7 3.7s1.1 10.9-3.7 13.7L173.4 722c-1.6 0.8-3.3 1.3-5 1.3z" fill="#153BDF" p-id="5289"></path><path d="M268.3 807.8c-0.9 0-1.7-0.1-2.6-0.3-5.3-1.4-8.5-6.9-7.1-12.2l45-167.8c1.4-5.3 6.9-8.5 12.2-7.1 5.3 1.4 8.5 6.9 7.1 12.2l-45 167.8a9.91 9.91 0 0 1-9.6 7.4z" fill="#153BDF" p-id="5290"></path><path d="M313.2 640c-0.9 0-1.7-0.1-2.6-0.3l-167.8-45c-5.3-1.4-8.5-6.9-7.1-12.2 1.4-5.3 6.9-8.5 12.2-7.1l167.8 45c5.3 1.4 8.5 6.9 7.1 12.2-1.1 4.4-5.1 7.4-9.6 7.4zM878.9 455c-0.9 0-1.7-0.1-2.6-0.3l-167.8-45c-5.3-1.4-8.5-6.9-7.1-12.2 1.4-5.3 6.9-8.5 12.2-7.1l167.8 45c5.3 1.4 8.5 6.9 7.1 12.2-1.2 4.4-5.2 7.4-9.6 7.4z" fill="#153BDF" p-id="5291"></path><path d="M711 410c-0.9 0-1.7-0.1-2.6-0.3-5.3-1.4-8.5-6.9-7.1-12.2l45-167.8c1.4-5.3 6.9-8.5 12.2-7.1 5.3 1.4 8.5 6.9 7.1 12.2l-45 167.8c-1.1 4.4-5.1 7.4-9.6 7.4z" fill="#153BDF" p-id="5292"></path></svg>