<?xml version="1.0" standalone="no"?><!DOCTYPE svg PUBLIC "-//W3C//DTD SVG 1.1//EN" "http://www.w3.org/Graphics/SVG/1.1/DTD/svg11.dtd"><svg t="1608121034518" class="icon" viewBox="0 0 1024 1024" version="1.1" xmlns="http://www.w3.org/2000/svg" p-id="1212" width="32" height="32" xmlns:xlink="http://www.w3.org/1999/xlink"><defs><style type="text/css"></style></defs><path d="M873.148 292.858l-78.436-18.094-25-25-17.25-77.592 150.874-150.84 120.652 120.686z" fill="#FC6E51" p-id="1213"></path><path d="M141.478 925.234a21.42 21.42 0 0 1-15.092-6.25c-8.344-8.376-8.344-21.876 0-30.188L980.302 34.862a21.33 21.33 0 0 1 30.186 0c8.312 8.312 8.312 21.812 0 30.156L156.54 918.984a21.404 21.404 0 0 1-15.062 6.25z" fill="#A85D5D" p-id="1214"></path><path d="M271.538 172.172l-18.094 78.436-25 25.03-77.592 17.22-150.84-150.84 120.686-120.686z" fill="#FC6E51" p-id="1215"></path><path d="M882.554 925.234a21.426 21.426 0 0 1-15.094-6.25L13.542 65.018c-8.344-8.344-8.344-21.844 0-30.156 8.312-8.344 21.842-8.344 30.156 0l853.95 853.934c8.312 8.312 8.312 21.812 0 30.188-4.188 4.126-9.624 6.25-15.094 6.25z" fill="#A85D5D" p-id="1216"></path><path d="M154.072 799.984a21.432 21.432 0 0 0-18.938-5.876 21.298 21.298 0 0 0-15.592 12.188l-74.968 166.25c-3.656 8.062-1.906 17.558 4.376 23.872a21.35 21.35 0 0 0 15.062 6.25c2.968 0 5.968-0.624 8.782-1.876l166.248-74.996a21.364 21.364 0 0 0 12.218-15.562c1.25-6.938-0.938-14-5.906-18.938l-91.282-91.312zM978.99 971.546l-74.498-165.25a21.3 21.3 0 0 0-15.594-12.188 21.43 21.43 0 0 0-18.938 5.876l-91.28 91.312a21.24 21.24 0 0 0-5.906 18.876 21.204 21.204 0 0 0 12.218 15.624l166.248 74.996c2.812 1.25 5.782 1.876 8.75 1.876h0.406c11.592-0.188 20.966-9.688 20.966-21.372 0.004-3.5-0.84-6.812-2.372-9.75z" fill="#CCD1D9" p-id="1217"></path><path d="M853.306 366.388l-0.094-1.75c-0.438-18-15.124-32.658-33.156-32.97-53.938-2.062-189.184-16.156-285.4-101.934a17.848 17.848 0 0 0-2.282-1.782 20.688 20.688 0 0 0-2.656-1.938 34.134 34.134 0 0 0-17.406-5.094h-0.656a33.576 33.576 0 0 0-22.188 8.75c-96.34 85.81-231.402 99.904-285.274 101.998-18.218 0.312-33.062 15.094-33.376 33.22l-0.124 2.938a14.128 14.128 0 0 0 0 1.594c9.594 263.382 172.714 467.628 322.18 570.878l0.188 0.188a34.004 34.004 0 0 0 18.936 5.75c6.812 0 13.376-2 18.938-5.812l1.968-1.312c0.062-0.062 0.156-0.124 0.218-0.188 82.154-57.188 157.652-137.312 212.556-225.496 31.656-50.812 56.782-104.438 74.688-159.372 19.688-60.452 30.782-122.918 32.938-185.698 0.032-0.658 0.032-1.314 0.002-1.97z" fill="#F6BB42" p-id="1218"></path><path d="M512 804.922a21.28 21.28 0 0 1-21.312-21.312V383.512c0-11.78 9.532-21.344 21.312-21.344 11.782 0 21.344 9.564 21.344 21.344v400.098c0 11.812-9.562 21.312-21.344 21.312z" fill="#FFCE54" p-id="1219"></path></svg>