<?xml version="1.0" standalone="no"?><!DOCTYPE svg PUBLIC "-//W3C//DTD SVG 1.1//EN" "http://www.w3.org/Graphics/SVG/1.1/DTD/svg11.dtd"><svg t="1608056684179" class="icon" viewBox="0 0 1024 1024" version="1.1" xmlns="http://www.w3.org/2000/svg" p-id="12641" xmlns:xlink="http://www.w3.org/1999/xlink" width="32" height="32"><defs><style type="text/css"></style></defs><path d="M512 568.874667l-393.514667 262.357333A21.333333 21.333333 0 0 1 85.333333 813.482667V210.517333a21.333333 21.333333 0 0 1 33.152-17.749333L512 455.125333V210.517333a21.333333 21.333333 0 0 1 33.152-17.749333l452.224 301.482667a21.333333 21.333333 0 0 1 0 35.498666l-452.224 301.482667a21.333333 21.333333 0 0 1-33.152-17.749333v-244.608zM443.477333 512L170.666667 330.112v363.776L443.477333 512zM597.333333 330.112v363.776L870.144 512 597.333333 330.112z" p-id="12642"></path></svg>